<svg width="124" height="124" viewBox="0 0 124 124" fill="none" xmlns="http://www.w3.org/2000/svg">
<path d="M51.6673 20.6668V31.0002H72.334V20.6668H51.6673ZM82.6673 20.6668H87.834C90.5746 20.6668 93.2029 21.7555 95.1408 23.6934C97.0786 25.6313 98.1673 28.2596 98.1673 31.0002V103.334C98.1673 106.074 97.0786 108.702 95.1408 110.64C93.2029 112.578 90.5746 113.667 87.834 113.667H36.1673C33.4267 113.667 30.7984 112.578 28.8605 110.64C26.9227 108.702 25.834 106.074 25.834 103.334V31.0002C25.834 28.2596 26.9227 25.6313 28.8605 23.6934C30.7984 21.7555 33.4267 20.6668 36.1673 20.6668H41.334C41.334 17.9263 42.4227 15.2979 44.3605 13.3601C46.2984 11.4222 48.9267 10.3335 51.6673 10.3335H72.334C75.0746 10.3335 77.7029 11.4222 79.6408 13.3601C81.5786 15.2979 82.6673 17.9263 82.6673 20.6668ZM82.6673 31.0002C82.6673 33.7407 81.5786 36.3691 79.6408 38.3069C77.7029 40.2448 75.0746 41.3335 72.334 41.3335H51.6673C48.9267 41.3335 46.2984 40.2448 44.3605 38.3069C42.4227 36.3691 41.334 33.7407 41.334 31.0002H36.1673V103.334H87.834V31.0002H82.6673ZM46.5007 51.6668H77.5007C78.8709 51.6668 80.1851 52.2112 81.154 53.1801C82.123 54.1491 82.6673 55.4632 82.6673 56.8335C82.6673 58.2038 82.123 59.5179 81.154 60.4869C80.1851 61.4558 78.8709 62.0002 77.5007 62.0002H46.5007C45.1304 62.0002 43.8162 61.4558 42.8473 60.4869C41.8783 59.5179 41.334 58.2038 41.334 56.8335C41.334 55.4632 41.8783 54.1491 42.8473 53.1801C43.8162 52.2112 45.1304 51.6668 46.5007 51.6668ZM46.5007 77.5002H77.5007C78.8709 77.5002 80.1851 78.0445 81.154 79.0134C82.123 79.9824 82.6673 81.2965 82.6673 82.6668C82.6673 84.0371 82.123 85.3513 81.154 86.3202C80.1851 87.2892 78.8709 87.8335 77.5007 87.8335H46.5007C45.1304 87.8335 43.8162 87.2892 42.8473 86.3202C41.8783 85.3513 41.334 84.0371 41.334 82.6668C41.334 81.2965 41.8783 79.9824 42.8473 79.0134C43.8162 78.0445 45.1304 77.5002 46.5007 77.5002Z" fill="#FF952B"/>
</svg>
