<svg width="80" height="80" viewBox="0 0 80 80" fill="none" xmlns="http://www.w3.org/2000/svg">
<path d="M25.7327 54.8531L31.6027 53.1598L66.946 17.3931C67.2248 17.1075 67.38 16.7236 67.3781 16.3244C67.3763 15.9253 67.2175 15.5429 66.936 15.2598L64.8193 13.1198C64.6826 12.9793 64.5192 12.8674 64.3387 12.7907C64.1582 12.714 63.9642 12.674 63.7681 12.673C63.572 12.6721 63.3777 12.7103 63.1965 12.7852C63.0153 12.8602 62.8508 12.9706 62.7127 13.1098L27.4627 48.7831L25.7293 54.8498L25.7327 54.8531ZM69.0093 8.87981L71.126 11.0231C74.046 13.9798 74.0727 18.7498 71.1794 21.6765L34.7594 58.5365L22.2127 62.1498C21.4467 62.3642 20.6269 62.266 19.9332 61.8767C19.2396 61.4873 18.7287 60.8387 18.5127 60.0731C18.352 59.5227 18.3496 58.9381 18.506 58.3865L22.156 45.5865L58.4794 8.82315C59.17 8.12767 59.9923 7.57669 60.8982 7.20232C61.804 6.82796 62.7754 6.63771 63.7555 6.64267C64.7357 6.64764 65.7051 6.84771 66.6071 7.23124C67.5091 7.61476 68.3257 8.17405 69.0093 8.87648V8.87981ZM30.6127 12.7231C32.266 12.7231 33.606 14.0798 33.606 15.7531C33.6087 16.1487 33.5333 16.5409 33.3842 16.9073C33.2352 17.2737 33.0154 17.6072 32.7374 17.8886C32.4594 18.17 32.1286 18.3938 31.7641 18.5473C31.3995 18.7008 31.0082 18.781 30.6127 18.7831H18.6393C15.3327 18.7831 12.6527 21.4965 12.6527 24.8398V61.1931C12.6527 64.5398 15.3327 67.2532 18.6393 67.2532H54.5594C57.866 67.2532 60.5494 64.5398 60.5494 61.1931V49.0765C60.5494 47.4031 61.8894 46.0465 63.5427 46.0465C65.196 46.0465 66.536 47.4031 66.536 49.0798V61.1931C66.536 67.8865 61.1727 73.3131 54.5594 73.3131H18.6393C12.026 73.3131 6.66602 67.8865 6.66602 61.1931V24.8398C6.66602 18.1498 12.026 12.7231 18.6393 12.7231H30.6127Z" fill="#FF952B"/>
</svg>
