<svg width="124" height="124" viewBox="0 0 124 124" fill="none" xmlns="http://www.w3.org/2000/svg">
<path d="M98.1673 41.3337H58.9782L56.5447 34.4413C56.1869 33.4341 55.5259 32.5624 54.6525 31.9462C53.7791 31.33 52.7362 30.9996 51.6673 31.0003H25.834C24.4637 31.0003 23.1495 31.5447 22.1806 32.5136C21.2117 33.4825 20.6673 34.7967 20.6673 36.167V87.8337C20.6673 89.2039 21.2117 90.5181 22.1806 91.487C23.1495 92.456 24.4637 93.0003 25.834 93.0003H98.1673C99.5376 93.0003 100.852 92.456 101.821 91.487C102.79 90.5181 103.334 89.2039 103.334 87.8337V46.5003C103.334 45.13 102.79 43.8159 101.821 42.8469C100.852 41.878 99.5376 41.3337 98.1673 41.3337V41.3337ZM66.289 31.0003H98.1673C102.278 31.0003 106.221 32.6334 109.127 35.5402C112.034 38.447 113.667 42.3895 113.667 46.5003V87.8337C113.667 91.9445 112.034 95.887 109.127 98.7938C106.221 101.701 102.278 103.334 98.1673 103.334H25.834C21.7231 103.334 17.7806 101.701 14.8738 98.7938C11.967 95.887 10.334 91.9445 10.334 87.8337L10.334 36.167C10.334 32.0561 11.967 28.1137 14.8738 25.2068C17.7806 22.3 21.7231 20.667 25.834 20.667H51.6673C58.415 20.667 64.1552 24.9812 66.289 31.0003Z" fill="#FF952B"/>
</svg>
