<svg width="124" height="124" viewBox="0 0 124 124" fill="none" xmlns="http://www.w3.org/2000/svg">
<path d="M20.6673 55.2938V87.8335H103.334V55.2938L88.0355 36.1668H35.9607L20.6673 55.2938ZM10.334 51.6668L31.0007 25.8335H93.0007L113.667 51.6668V87.8335C113.667 90.5741 112.579 93.2024 110.641 95.1403C108.703 97.0781 106.075 98.1668 103.334 98.1668H20.6673C17.9267 98.1668 15.2984 97.0781 13.3605 95.1403C11.4227 93.2024 10.334 90.5741 10.334 87.8335V51.6668ZM82.0163 62.0002C80.8671 66.4344 78.2779 70.3615 74.6552 73.165C71.0325 75.9684 66.5814 77.4895 62.0007 77.4895C57.4199 77.4895 52.9688 75.9684 49.3461 73.165C45.7234 70.3615 43.1342 66.4344 41.985 62.0002H20.6673V51.6668H103.334V62.0002H82.0163ZM70.9493 62.0002H53.052C53.959 63.5709 55.2634 64.8753 56.8342 65.7821C58.405 66.689 60.1869 67.1664 62.0007 67.1664C63.8144 67.1664 65.5963 66.689 67.1671 65.7821C68.7379 64.8753 70.0423 63.5709 70.9493 62.0002Z" fill="#FF952B"/>
</svg>
