<svg width="124" height="124" viewBox="0 0 124 124" fill="none" xmlns="http://www.w3.org/2000/svg">
<path d="M63.591 79.9335L63.9837 74.4362L68.7732 71.703C73.3719 69.0379 77.5971 65.7752 81.3385 62C94.9785 48.3548 99.1429 32.3123 94.126 27.2903C89.104 22.2787 73.0615 26.4327 59.4164 40.0778C55.4897 44.0045 52.1985 48.2928 49.7134 52.6432L46.975 57.4327L41.4829 57.8253C36.9758 58.1414 32.6989 59.9357 29.3154 62.93C35.7735 65.7719 41.645 69.7931 46.6289 74.7875C51.6922 79.8508 55.6809 85.7253 58.4864 92.101C61.4806 88.7175 63.2749 84.4406 63.591 79.9335ZM48.2305 94.55C47.1915 95.9629 46.0463 97.2945 44.805 98.5335C38.7497 104.589 29.615 106.413 17.401 104.01C15.0037 91.8013 16.8327 82.6667 22.8777 76.6113C24.159 75.3403 25.492 74.1933 26.8664 73.1858C22.6308 71.1167 18.1044 69.7054 13.4434 69.0008C14.944 64.2905 17.554 60.0096 21.0539 56.5182C26.3156 51.2433 33.3069 48.0486 40.7389 47.523C43.8584 42.1248 47.6807 37.1645 52.1055 32.7722C69.2589 15.6188 91.3412 9.89933 101.432 19.9847C111.517 30.0752 105.792 52.1575 88.6442 69.3057C84.2518 73.7305 79.2916 77.5528 73.8934 80.6723C73.3678 88.1043 70.173 95.0956 64.8982 100.357C61.4098 103.862 57.128 106.474 52.4155 107.973C51.7109 103.312 50.2997 98.7856 48.2305 94.55ZM39.318 82.0983C38.4861 81.2644 37.548 80.5435 36.528 79.9542C34.296 80.7292 31.6714 82.4342 29.2689 84.8315C28.1374 85.9682 26.7527 89.7863 26.7372 94.674C31.6249 94.6585 35.4585 93.2583 36.5797 92.1423C38.9822 89.7347 40.6872 87.1152 41.457 84.8832C40.8693 83.8635 40.1502 82.9254 39.318 82.0932V82.0983ZM79.5044 41.9017C78.9997 41.4277 78.5954 40.8572 78.3155 40.224C78.0357 39.5908 77.8859 38.9078 77.8752 38.2156C77.8644 37.5233 77.9929 36.836 78.253 36.1944C78.513 35.5528 78.8994 34.97 79.3891 34.4807C79.8788 33.9913 80.4619 33.6053 81.1037 33.3457C81.7454 33.0861 82.4329 32.9581 83.1251 32.9694C83.8173 32.9806 84.5002 33.1308 85.1332 33.4112C85.7662 33.6915 86.3365 34.0962 86.81 34.6012C87.7009 35.5837 88.1798 36.8712 88.1477 38.197C88.1155 39.5229 87.5747 40.7856 86.6372 41.7238C85.6997 42.6619 84.4374 43.2036 83.1115 43.2367C81.7856 43.2699 80.4978 42.7918 79.5147 41.9017H79.5044Z" fill="#FF952B"/>
</svg>
