<svg width="124" height="124" viewBox="0 0 124 124" fill="none" xmlns="http://www.w3.org/2000/svg">
<path d="M113.667 52.5085C111.983 53.4554 110.581 54.8336 109.606 56.5017C108.631 58.1698 108.117 60.0674 108.118 61.9997C108.118 66.0762 110.355 69.6257 113.667 71.4908L109.963 83.9218C107.96 83.5774 105.902 83.8007 104.02 84.5665C102.138 85.3323 100.508 86.61 99.3151 88.2547C98.1222 89.8994 97.4138 91.8454 97.2703 93.8721C97.1268 95.8988 97.5539 97.9251 98.5032 99.7215L87.8495 107.999C86.439 106.842 84.7603 106.059 82.968 105.722C81.1756 105.385 79.3272 105.504 77.5929 106.069C75.8587 106.633 74.2943 107.625 73.044 108.953C71.7936 110.28 70.8974 111.901 70.4378 113.666L53.4395 113.625C52.9749 111.868 52.0775 110.256 50.8292 108.936C49.5809 107.616 48.0217 106.63 46.2939 106.067C44.5662 105.505 42.7251 105.385 40.9389 105.718C39.1527 106.051 37.4785 106.826 36.0692 107.973L25.4258 99.6285C26.3484 97.8395 26.7565 95.8296 26.6046 93.8225C26.4526 91.8153 25.7466 89.8897 24.5652 88.26C23.3837 86.6303 21.7732 85.3605 19.9129 84.5918C18.0525 83.8232 16.0154 83.5859 14.0282 83.9063L10.334 71.4288C11.9871 70.472 13.3591 69.0969 14.3123 67.4418C15.2655 65.7866 15.7662 63.9097 15.7642 61.9997C15.7642 57.9697 13.589 54.4563 10.334 52.5705L14.0282 40.093C16.0158 40.4146 18.0536 40.1782 19.9148 39.41C21.7759 38.6418 23.3873 37.3721 24.5694 35.7421C25.7516 34.1122 26.458 32.1862 26.6101 30.1785C26.7623 28.1708 26.354 26.1602 25.431 24.3708L36.064 16.0267C37.4733 17.1734 39.1476 17.9486 40.9337 18.2815C42.7199 18.6143 44.561 18.4941 46.2888 17.9319C48.0165 17.3697 49.5758 16.3834 50.824 15.0631C52.0723 13.7429 52.9697 12.1309 53.4343 10.3743L70.443 10.333C70.9025 12.098 71.7988 13.719 73.0491 15.0467C74.2995 16.3744 75.8638 17.3662 77.5981 17.9308C79.3324 18.4953 81.1808 18.6144 82.9731 18.2772C84.7655 17.9399 86.4442 17.1571 87.8547 16.0008L98.498 24.283C97.5487 26.0794 97.1217 28.1058 97.2652 30.1325C97.4087 32.1592 98.117 34.1051 99.31 35.7498C100.503 37.3945 102.133 38.6722 104.015 39.438C105.896 40.2038 107.955 40.4271 109.958 40.0827L113.667 52.5033V52.5085ZM86.9195 29.3463C86.9195 29.0208 86.9298 28.7005 86.9453 28.375L86.532 28.0547C82.5076 29.151 78.2492 29.0358 74.29 27.7234C70.3308 26.411 66.8467 23.9598 64.274 20.6767L59.6033 20.687C57.0402 23.9562 53.5725 26.3996 49.6315 27.7132C45.6905 29.0269 41.4503 29.1528 37.4383 28.0753L36.9475 28.468C37.142 33.1318 35.7937 37.7297 33.1112 41.5499C30.4287 45.37 26.5617 48.1993 22.1088 49.5997C24.7067 53.2101 26.1022 57.5466 26.0975 61.9945C26.0975 66.5515 24.6508 70.8553 22.1088 74.3945C26.5617 75.7949 30.4287 78.6242 33.1112 82.4443C35.7937 86.2645 37.142 90.8624 36.9475 95.5262L37.4435 95.9137C41.4548 94.84 45.6932 94.9678 49.6325 96.2813C53.5719 97.5947 57.0389 100.036 59.6033 103.302L64.274 103.312C66.845 100.029 70.3281 97.5768 74.2867 96.2643C78.2453 94.9518 82.5033 94.837 86.5268 95.9343L86.9402 95.614C86.7273 90.9357 88.0677 86.3184 90.7526 82.4813C93.4374 78.6441 97.316 75.8027 101.784 74.3997C99.1839 70.7882 97.7866 66.4498 97.7902 61.9997C97.7902 57.4427 99.242 53.1337 101.784 49.5997C97.4749 48.245 93.7104 45.551 91.0379 41.9093C88.3655 38.2677 86.9246 33.8685 86.9247 29.3515L86.9195 29.3463ZM62.0007 82.6663C56.5195 82.6663 51.2629 80.489 47.3871 76.6132C43.5114 72.7375 41.334 67.4808 41.334 61.9997C41.334 56.5185 43.5114 51.2619 47.3871 47.3861C51.2629 43.5104 56.5195 41.333 62.0007 41.333C67.4818 41.333 72.7384 43.5104 76.6142 47.3861C80.4899 51.2619 82.6673 56.5185 82.6673 61.9997C82.6673 67.4808 80.4899 72.7375 76.6142 76.6132C72.7384 80.489 67.4818 82.6663 62.0007 82.6663ZM62.0007 72.333C64.7412 72.333 67.3695 71.2443 69.3074 69.3064C71.2453 67.3686 72.334 64.7402 72.334 61.9997C72.334 59.2591 71.2453 56.6308 69.3074 54.6929C67.3695 52.755 64.7412 51.6663 62.0007 51.6663C59.2601 51.6663 56.6318 52.755 54.6939 54.6929C52.756 56.6308 51.6673 59.2591 51.6673 61.9997C51.6673 64.7402 52.756 67.3686 54.6939 69.3064C56.6318 71.2443 59.2601 72.333 62.0007 72.333Z" fill="#FF952B"/>
</svg>
