<svg width="96" height="96" viewBox="0 0 96 96" fill="none" xmlns="http://www.w3.org/2000/svg">
<rect width="96" height="96" rx="48" fill="#F2F4F8"/>
<path d="M50.8008 46.7998V36.7998C50.8008 36.2694 50.5901 35.7607 50.215 35.3856C49.8399 35.0105 49.3312 34.7998 48.8008 34.7998C48.2703 34.7998 47.7616 35.0105 47.3866 35.3856C47.0115 35.7607 46.8008 36.2694 46.8008 36.7998V46.7998H36.8008C36.2703 46.7998 35.7616 47.0105 35.3866 47.3856C35.0115 47.7607 34.8008 48.2694 34.8008 48.7998C34.8008 49.3302 35.0115 49.8389 35.3866 50.214C35.7616 50.5891 36.2703 50.7998 36.8008 50.7998H46.8008V60.7998C46.8008 61.3302 47.0115 61.8389 47.3866 62.214C47.7616 62.5891 48.2703 62.7998 48.8008 62.7998C49.3312 62.7998 49.8399 62.5891 50.215 62.214C50.5901 61.8389 50.8008 61.3302 50.8008 60.7998V50.7998H60.8008C61.3312 50.7998 61.8399 50.5891 62.215 50.214C62.5901 49.8389 62.8008 49.3302 62.8008 48.7998C62.8008 48.2694 62.5901 47.7607 62.215 47.3856C61.8399 47.0105 61.3312 46.7998 60.8008 46.7998H50.8008Z" fill="#C1C7CD"/>
</svg>
