<svg width="80" height="80" viewBox="0 0 80 80" fill="none" xmlns="http://www.w3.org/2000/svg">
<path d="M40.0003 73.3337C21.5903 73.3337 6.66699 58.4103 6.66699 40.0003C6.66699 21.5903 21.5903 6.66699 40.0003 6.66699C58.4103 6.66699 73.3337 21.5903 73.3337 40.0003C73.3337 58.4103 58.4103 73.3337 40.0003 73.3337ZM40.0003 66.667C47.0728 66.667 53.8555 63.8575 58.8565 58.8565C63.8575 53.8555 66.667 47.0728 66.667 40.0003C66.667 32.9279 63.8575 26.1451 58.8565 21.1441C53.8555 16.1432 47.0728 13.3337 40.0003 13.3337C32.9279 13.3337 26.1451 16.1432 21.1441 21.1441C16.1432 26.1451 13.3337 32.9279 13.3337 40.0003C13.3337 47.0728 16.1432 53.8555 21.1441 58.8565C26.1451 63.8575 32.9279 66.667 40.0003 66.667ZM40.0003 20.0003C43.5365 20.0003 46.9279 21.4051 49.4284 23.9056C51.9289 26.4061 53.3337 29.7974 53.3337 33.3337V40.0003C53.3337 43.5365 51.9289 46.9279 49.4284 49.4284C46.9279 51.9289 43.5365 53.3337 40.0003 53.3337C36.4641 53.3337 33.0727 51.9289 30.5722 49.4284C28.0717 46.9279 26.667 43.5365 26.667 40.0003V33.3337C26.667 29.7974 28.0717 26.4061 30.5722 23.9056C33.0727 21.4051 36.4641 20.0003 40.0003 20.0003ZM40.0003 26.667C38.2322 26.667 36.5365 27.3694 35.2863 28.6196C34.036 29.8699 33.3337 31.5655 33.3337 33.3337V40.0003C33.3337 41.7684 34.036 43.4641 35.2863 44.7144C36.5365 45.9646 38.2322 46.667 40.0003 46.667C41.7684 46.667 43.4641 45.9646 44.7144 44.7144C45.9646 43.4641 46.667 41.7684 46.667 40.0003V33.3337C46.667 31.5655 45.9646 29.8699 44.7144 28.6196C43.4641 27.3694 41.7684 26.667 40.0003 26.667ZM26.367 62.9203C24.4469 61.7766 22.6776 60.397 21.1003 58.8137C23.0803 56.487 25.6037 54.6848 28.447 53.567C28.8568 53.3921 29.2975 53.3012 29.7431 53.2996C30.1886 53.298 30.63 53.3857 31.0411 53.5576C31.4522 53.7295 31.8246 53.9821 32.1364 54.3004C32.4482 54.6187 32.693 54.9962 32.8564 55.4108C33.0197 55.8253 33.0983 56.2684 33.0875 56.7138C33.0767 57.1592 32.9767 57.598 32.7934 58.0041C32.6101 58.4102 32.3473 58.7755 32.0204 59.0783C31.6935 59.3811 31.3093 59.6153 30.8903 59.767C29.117 60.467 27.5803 61.5603 26.3637 62.9203H26.367ZM53.5137 62.9937C52.223 61.5661 50.6123 60.4649 48.8137 59.7803C48.3921 59.634 48.0042 59.4046 47.673 59.1057C47.3418 58.8067 47.074 58.4443 46.8854 58.0399C46.6968 57.6355 46.5914 57.1973 46.5753 56.7514C46.5592 56.3055 46.6328 55.8609 46.7917 55.444C46.9506 55.0271 47.1916 54.6463 47.5005 54.3242C47.8093 54.0022 48.1796 53.7454 48.5895 53.5691C48.9994 53.3928 49.4405 53.3006 49.8867 53.2979C50.3329 53.2953 50.775 53.3822 51.187 53.5537C54.133 54.674 56.7508 56.5158 58.8003 58.9103C57.2155 60.4868 55.4394 61.8586 53.5137 62.9937Z" fill="#FF952B"/>
</svg>
