<svg width="124" height="124" viewBox="0 0 124 124" fill="none" xmlns="http://www.w3.org/2000/svg">
<path d="M76.4673 23.8341L111.089 81.4992C116.065 89.7814 113.621 100.678 105.628 105.834C102.945 107.571 99.8184 108.497 96.6225 108.5H27.3737C17.9652 108.5 10.334 100.595 10.334 90.8354C10.334 87.5339 11.2278 84.3047 12.907 81.4992L47.534 23.8341C52.5043 15.5519 63.0133 13.0151 71.0061 18.1714C73.2175 19.5974 75.0878 21.5349 76.4673 23.8341ZM64.9973 28.1689C64.3648 27.7621 63.6564 27.4877 62.9148 27.3623C62.1733 27.2369 61.4141 27.2631 60.6829 27.4394C59.9518 27.6156 59.264 27.9383 58.6611 28.3878C58.0582 28.8373 57.5526 29.4044 57.175 30.0547L22.5532 87.7302C21.9908 88.6702 21.6943 89.7452 21.6955 90.8406C21.6955 94.0956 24.2375 96.7306 27.3788 96.7306H96.6173C97.6817 96.7306 98.7201 96.4206 99.6191 95.8419C100.909 94.9848 101.819 93.6631 102.159 92.152C102.498 90.6409 102.242 89.057 101.443 87.7302L66.8211 30.0547C66.3671 29.2954 65.7449 28.6502 65.0025 28.1689H64.9973ZM62.0006 87.8336C60.6304 87.8336 59.3162 87.2892 58.3473 86.3203C57.3783 85.3514 56.834 84.0372 56.834 82.6669C56.834 81.2966 57.3783 79.9825 58.3473 79.0135C59.3162 78.0446 60.6304 77.5002 62.0006 77.5002C63.3709 77.5002 64.6851 78.0446 65.654 79.0135C66.623 79.9825 67.1673 81.2966 67.1673 82.6669C67.1673 84.0372 66.623 85.3514 65.654 86.3203C64.6851 87.2892 63.3709 87.8336 62.0006 87.8336ZM62.0006 41.3336C63.3709 41.3336 64.6851 41.8779 65.654 42.8469C66.623 43.8158 67.1673 45.13 67.1673 46.5002V67.1669C67.1673 68.5372 66.623 69.8514 65.654 70.8203C64.6851 71.7892 63.3709 72.3336 62.0006 72.3336C60.6304 72.3336 59.3162 71.7892 58.3473 70.8203C57.3783 69.8514 56.834 68.5372 56.834 67.1669V46.5002C56.834 45.13 57.3783 43.8158 58.3473 42.8469C59.3162 41.8779 60.6304 41.3336 62.0006 41.3336Z" fill="#FF952B"/>
</svg>
