<svg width="217" height="203" viewBox="0 0 217 203" fill="none" xmlns="http://www.w3.org/2000/svg">
<path d="M0 190.337V12.4519C0 5.57492 5.58111 0 12.4658 0C19.3504 0 24.9315 5.57492 24.9315 12.4519V190.337C24.9315 197.214 19.3504 202.788 12.4658 202.788C5.58111 202.788 0 197.214 0 190.337Z" fill="#FF8C00"/>
<path d="M125.548 101.394C125.548 73.2401 119.46 54.4482 109.449 42.7974C99.7517 31.5108 84.6053 24.9038 61.5931 24.9038H12.4658C5.58111 24.9038 0 19.3289 0 12.4519C0 5.57492 5.58111 0 12.4658 0H61.5931C89.5278 0 112.592 8.21689 128.368 26.5776C143.831 44.5742 150.479 70.2537 150.479 101.394C150.479 108.271 144.898 113.846 138.014 113.846C131.129 113.846 125.548 108.271 125.548 101.394Z" fill="#FF8C00"/>
<path d="M125.548 101.394C125.548 94.5172 131.129 88.9423 138.014 88.9423C144.898 88.9423 150.479 94.5172 150.479 101.394C150.479 132.663 143.445 158.439 127.181 176.443C110.697 194.689 86.7172 202.788 57.6628 202.788H12.4658C5.58111 202.788 0 197.214 0 190.336C0 183.459 5.58111 177.885 12.4658 177.885H57.6628C82.1752 177.885 98.3712 171.16 108.671 159.759C119.19 148.115 125.548 129.42 125.548 101.394Z" fill="#FF8C00"/>
<path d="M129.297 160.469C160.381 160.469 185.579 135.298 185.579 104.249C185.579 73.1994 160.381 48.0289 129.297 48.0289C98.2131 48.0289 73.0146 73.1994 73.0146 104.249C73.0146 135.298 98.2131 160.469 129.297 160.469Z" fill="white"/>
<path d="M175.785 104.248C175.784 78.6026 154.971 57.8125 129.296 57.8125C103.622 57.8127 82.8089 78.6027 82.8088 104.248C82.8088 129.894 103.622 150.685 129.296 150.685C154.971 150.685 175.785 129.894 175.785 104.248ZM195.374 104.248C195.374 140.701 165.789 170.252 129.296 170.252C92.8032 170.252 63.2197 140.701 63.2197 104.248C63.2199 67.7959 92.8032 38.2454 129.296 38.2452C165.789 38.2452 195.373 67.7958 195.374 104.248Z" fill="#FF8C00"/>
<path d="M164.091 140.493C167.796 137.263 173.42 137.645 176.654 141.346L214.175 184.292C217.409 187.993 217.026 193.612 213.321 196.841C209.616 200.071 203.992 199.689 200.758 195.988L163.237 153.043C160.003 149.342 160.385 143.723 164.091 140.493Z" fill="#FF8C00"/>
<path d="M128.474 5.57947C128.884 5.42306 129.336 5.42305 129.746 5.57947L185.308 26.8C186.834 27.383 186.834 29.5401 185.308 30.1231L129.746 51.3437C129.336 51.5001 128.884 51.5001 128.474 51.3437L72.9124 30.1231C71.386 29.5401 71.386 27.383 72.9124 26.8L128.474 5.57947Z" fill="#1B2A4A"/>
<path d="M165.172 62.2596V35.5769C165.172 34.8401 165.77 34.2428 166.507 34.2428C167.245 34.2428 167.843 34.8401 167.843 35.5769V62.2596C167.843 62.9964 167.245 63.5938 166.507 63.5938C165.77 63.5938 165.172 62.9964 165.172 62.2596Z" fill="#FFB347"/>
<path d="M166.257 36.8874L128.86 29.7721C128.135 29.6342 127.66 28.9357 127.798 28.2119C127.936 27.4881 128.635 27.0131 129.36 27.1509L166.757 34.2663C167.481 34.4042 167.957 35.1027 167.819 35.8265C167.681 36.5503 166.982 37.0253 166.257 36.8874Z" fill="#FFB347"/>
<path d="M166.507 66.7067C168.966 66.7067 170.959 64.7157 170.959 62.2596C170.959 59.8035 168.966 57.8125 166.507 57.8125C164.048 57.8125 162.055 59.8035 162.055 62.2596C162.055 64.7157 164.048 66.7067 166.507 66.7067Z" fill="#FFB347"/>
</svg>
