<svg width="301" height="282" viewBox="0 0 301 282" fill="none" xmlns="http://www.w3.org/2000/svg">
<path d="M0 264.413V17.2981C0 7.74461 7.75631 0 17.3242 0C26.8921 0 34.6484 7.74461 34.6484 17.2981V264.413C34.6484 273.967 26.8921 281.712 17.3242 281.712C7.75631 281.712 0 273.967 0 264.413Z" fill="#FF8C00"/>
<path d="M174.479 140.856C174.479 101.744 166.018 75.6389 152.106 59.4537C138.629 43.7745 117.58 34.5962 85.5987 34.5962H17.3242C7.75631 34.5962 0 26.8515 0 17.2981C0 7.74461 7.75631 0 17.3242 0H85.5987C124.421 0 156.474 11.4148 178.398 36.9213C199.888 61.922 209.128 97.5956 209.128 140.856C209.128 150.409 201.372 158.154 191.804 158.154C182.236 158.154 174.479 150.409 174.479 140.856Z" fill="#FF8C00"/>
<path d="M174.479 140.856C174.479 131.302 182.236 123.558 191.804 123.558C201.372 123.558 209.128 131.302 209.128 140.856C209.128 184.294 199.352 220.102 176.749 245.112C153.841 270.46 120.515 281.712 80.1365 281.712H17.3242C7.75631 281.712 0 273.967 0 264.413C0 254.86 7.75631 247.115 17.3242 247.115H80.1365C114.203 247.115 136.711 237.774 151.025 221.936C165.644 205.76 174.479 179.789 174.479 140.856Z" fill="#FF8C00"/>
<path d="M179.689 222.921C222.887 222.921 257.907 187.955 257.907 144.821C257.907 101.688 222.887 66.7212 179.689 66.7212C136.49 66.7212 101.471 101.688 101.471 144.821C101.471 187.955 136.49 222.921 179.689 222.921Z" fill="#FFFAF2"/>
<path d="M244.296 144.821C244.295 109.194 215.37 80.3125 179.689 80.3125C144.008 80.3127 115.083 109.194 115.083 144.821C115.083 180.448 144.008 209.33 179.689 209.33C215.37 209.33 244.296 180.448 244.296 144.821ZM271.519 144.821C271.519 195.46 230.405 236.513 179.689 236.513C128.973 236.513 87.8594 195.46 87.8594 144.821C87.8596 94.1813 128.973 53.13 179.689 53.1298C230.405 53.1298 271.519 94.1812 271.519 144.821Z" fill="#FF8C00"/>
<path d="M228.043 195.172C233.192 190.685 241.009 191.215 245.502 196.357L297.648 256.017C302.141 261.158 301.61 268.963 296.461 273.45C291.312 277.937 283.495 277.406 279.001 272.265L226.856 212.605C222.362 207.464 222.894 199.659 228.043 195.172Z" fill="#FF8C00"/>
<path d="M178.546 7.7509C179.115 7.53361 179.744 7.53361 180.313 7.7509L257.53 37.2303C259.651 38.0401 259.651 41.0368 257.53 41.8466L180.313 71.326C179.744 71.5433 179.115 71.5433 178.546 71.326L101.329 41.8466C99.2079 41.0368 99.2079 38.0401 101.329 37.2303L178.546 7.7509Z" fill="#1B2A4A"/>
<path d="M229.547 86.4904V49.4231C229.547 48.3995 230.378 47.5697 231.403 47.5697C232.428 47.5697 233.259 48.3995 233.259 49.4231V86.4904C233.259 87.514 232.428 88.3438 231.403 88.3438C230.378 88.3438 229.547 87.514 229.547 86.4904Z" fill="#FFB347"/>
<path d="M231.055 51.2437L179.083 41.3591C178.076 41.1676 177.415 40.1972 177.607 39.1917C177.799 38.1862 178.771 37.5263 179.778 37.7178L231.75 47.6024C232.757 47.7939 233.418 48.7643 233.226 49.7698C233.034 50.7753 232.062 51.4352 231.055 51.2437Z" fill="#FFB347"/>
<path d="M231.402 92.6683C234.819 92.6683 237.589 89.9023 237.589 86.4904C237.589 83.0784 234.819 80.3125 231.402 80.3125C227.985 80.3125 225.215 83.0784 225.215 86.4904C225.215 89.9023 227.985 92.6683 231.402 92.6683Z" fill="#FFB347"/>
</svg>
