<svg width="234" height="53" viewBox="0 0 234 53" fill="none" xmlns="http://www.w3.org/2000/svg">
<path d="M0 49.3846V3.23077C0 1.44646 1.45967 0 3.26027 0C5.06087 0 6.52055 1.44646 6.52055 3.23077V49.3846C6.52055 51.1689 5.06087 52.6154 3.26027 52.6154C1.45967 52.6154 0 51.1689 0 49.3846Z" fill="#FF8C00"/>
<path d="M32.8356 26.3077C32.8356 19.0028 31.2433 14.1271 28.6252 11.1042C26.0889 8.17578 22.1275 6.46154 16.109 6.46154H3.26027C1.45967 6.46154 0 5.01507 0 3.23077C0 1.44646 1.45967 0 3.26027 0H16.109C23.415 0 29.4471 2.13195 33.5731 6.89581C37.6173 11.5652 39.3562 18.228 39.3562 26.3077C39.3562 28.092 37.8965 29.5385 36.0959 29.5385C34.2953 29.5385 32.8356 28.092 32.8356 26.3077Z" fill="#FF8C00"/>
<path d="M32.8356 26.3077C32.8356 24.5234 34.2953 23.0769 36.0959 23.0769C37.8965 23.0769 39.3562 24.5234 39.3562 26.3077C39.3562 34.4207 37.5164 41.1086 33.2627 45.7798C28.9516 50.5139 22.6799 52.6154 15.081 52.6154H3.26027C1.45967 52.6154 0 51.1689 0 49.3846C0 47.6003 1.45967 46.1539 3.26027 46.1539H15.081C21.492 46.1539 25.7279 44.4091 28.4216 41.451C31.1728 38.4299 32.8356 33.5793 32.8356 26.3077Z" fill="#FF8C00"/>
<path d="M33.8167 41.6351C41.9463 41.6351 48.5366 35.1044 48.5366 27.0483C48.5366 18.9923 41.9463 12.4615 33.8167 12.4615C25.687 12.4615 19.0967 18.9923 19.0967 27.0483C19.0967 35.1044 25.687 41.6351 33.8167 41.6351Z" fill="white"/>
<path d="M45.9752 27.0482C45.9751 20.3942 40.5315 15 33.8167 15C27.1019 15 21.6585 20.3942 21.6584 27.0482C21.6584 33.7023 27.1019 39.0966 33.8167 39.0967C40.5316 39.0967 45.9752 33.7023 45.9752 27.0482ZM51.0985 27.0482C51.0985 36.5062 43.3611 44.1736 33.8167 44.1736C24.2724 44.1736 16.5352 36.5062 16.5352 27.0482C16.5352 17.5903 24.2724 9.9231 33.8167 9.92307C43.3611 9.92307 51.0984 17.5902 51.0985 27.0482Z" fill="#FF8C00"/>
<path d="M42.9167 36.4523C43.8857 35.6143 45.3568 35.7134 46.2024 36.6736L56.0158 47.8163C56.8614 48.7766 56.7615 50.2343 55.7925 51.0724C54.8235 51.9103 53.3524 51.8112 52.5067 50.851L42.6934 39.7083C41.8477 38.7481 41.9477 37.2903 42.9167 36.4523Z" fill="#FF8C00"/>
<path d="M33.6014 1.44764C33.7085 1.40706 33.827 1.40706 33.9341 1.44764L48.4656 6.95352C48.8648 7.10478 48.8648 7.66446 48.4656 7.81572L33.9341 13.3216C33.827 13.3622 33.7085 13.3622 33.6014 13.3216L19.0699 7.81572C18.6707 7.66446 18.6707 7.10478 19.0699 6.95352L33.6014 1.44764Z" fill="#1B2A4A"/>
<path d="M43.1992 16.1538V9.23077C43.1992 9.03959 43.3556 8.88461 43.5485 8.88461C43.7415 8.88461 43.8978 9.03959 43.8978 9.23077V16.1538C43.8978 16.345 43.7415 16.5 43.5485 16.5C43.3556 16.5 43.1992 16.345 43.1992 16.1538Z" fill="#FFB347"/>
<path d="M43.4833 9.57079L33.7025 7.72465C33.513 7.68888 33.3886 7.50764 33.4247 7.31984C33.4608 7.13204 33.6437 7.0088 33.8332 7.04457L43.614 8.89071C43.8035 8.92649 43.9279 9.10773 43.8918 9.29552C43.8557 9.48332 43.6728 9.60657 43.4833 9.57079Z" fill="#FFB347"/>
<path d="M43.5482 17.3077C44.1912 17.3077 44.7126 16.7911 44.7126 16.1538C44.7126 15.5166 44.1912 15 43.5482 15C42.9051 15 42.3838 15.5166 42.3838 16.1538C42.3838 16.7911 42.9051 17.3077 43.5482 17.3077Z" fill="#FFB347"/>
<path d="M74.3047 10.0486C74.3261 10.4113 74.5394 10.6353 74.9447 10.7206C75.3074 10.7846 75.7341 10.8379 76.2247 10.8806C76.7154 10.9233 77.2167 10.9659 77.7287 11.0086C78.2621 11.0299 78.7954 11.0513 79.3287 11.0726C79.8834 11.0939 80.4061 11.1046 80.8967 11.1046C82.2194 11.1046 83.5207 11.0193 84.8007 10.8486C86.1021 10.6566 87.3181 10.4006 88.4487 10.0806C88.7474 9.99528 89.0461 9.95261 89.3447 9.95261C89.6434 9.95261 89.9314 10.0059 90.2087 10.1126C90.4861 10.1979 90.7314 10.3473 90.9447 10.5606C91.1581 10.7739 91.3074 11.0406 91.3927 11.3606C91.5634 11.9793 91.5207 12.5339 91.2647 13.0246C91.0301 13.5153 90.6567 13.8779 90.1447 14.1126C89.1207 14.5606 87.9687 14.8913 86.6887 15.1046C85.4087 15.2966 84.1287 15.4246 82.8487 15.4886V16.4486C84.4274 16.4273 85.9101 16.3846 87.2967 16.3206C88.7047 16.2566 89.8887 16.1713 90.8487 16.0646C91.1474 16.0433 91.4567 16.0539 91.7767 16.0966C92.1181 16.1393 92.4274 16.2459 92.7047 16.4166C92.9821 16.5659 93.2167 16.7899 93.4087 17.0886C93.6007 17.3659 93.7074 17.7286 93.7287 18.1766C93.7501 18.5819 93.6967 18.9446 93.5687 19.2646C93.4407 19.5633 93.2594 19.8193 93.0247 20.0326C92.8114 20.2459 92.5661 20.4166 92.2887 20.5446C92.0114 20.6726 91.7341 20.7579 91.4567 20.8006C90.8167 20.8859 89.9207 20.9606 88.7687 21.0246C87.6167 21.0673 86.3261 21.1099 84.8967 21.1526C83.4674 21.1739 81.9634 21.1953 80.3847 21.2166C78.8061 21.2166 77.2807 21.2059 75.8087 21.1846C74.3581 21.1633 73.0141 21.1206 71.7767 21.0566C70.5607 20.9926 69.5901 20.9073 68.8647 20.8006C68.5661 20.7579 68.2674 20.6726 67.9687 20.5446C67.6914 20.4166 67.4354 20.2459 67.2007 20.0326C66.9874 19.8193 66.8167 19.5526 66.6887 19.2326C66.5821 18.9126 66.5501 18.5286 66.5927 18.0806C66.6354 17.6966 66.7527 17.3659 66.9447 17.0886C67.1367 16.8113 67.3714 16.5979 67.6487 16.4486C67.9474 16.2779 68.2567 16.1713 68.5767 16.1286C68.8967 16.0646 69.1954 16.0433 69.4727 16.0646C70.4541 16.1713 71.6381 16.2566 73.0247 16.3206C74.4114 16.3633 75.8941 16.4059 77.4727 16.4486V15.4566C76.3421 15.3926 75.2541 15.2859 74.2087 15.1366C73.1847 14.9873 72.3634 14.7846 71.7447 14.5286C71.2754 14.3366 70.7847 14.0166 70.2727 13.5686C69.7607 13.0993 69.4301 12.5019 69.2807 11.7766C69.1954 11.3713 69.1314 10.9233 69.0887 10.4326C69.0674 9.94194 69.0567 9.45128 69.0567 8.96061C69.0567 8.46994 69.0674 7.98995 69.0887 7.52061C69.1314 7.05128 69.1741 6.64595 69.2167 6.30461C69.2594 6.00594 69.3661 5.71795 69.5367 5.44061C69.7287 5.16328 69.9421 4.92861 70.1767 4.73661C70.4114 4.52328 70.6567 4.36328 70.9127 4.25661C71.1687 4.12861 71.4034 4.06461 71.6167 4.06461H88.7047C89.1741 4.06461 89.6221 4.25661 90.0487 4.64061C90.4967 5.02461 90.7207 5.54728 90.7207 6.20861C90.7207 6.82728 90.5287 7.36061 90.1447 7.80861C89.7821 8.23528 89.3021 8.44861 88.7047 8.44861H74.8807C74.4967 8.44861 74.3047 8.66195 74.3047 9.08861V10.0486ZM91.8727 27.5526C91.8727 28.7259 91.5421 29.6646 90.8807 30.3686C90.2194 31.0939 89.3341 31.6486 88.2247 32.0326C87.1367 32.4379 85.8887 32.7046 84.4807 32.8326C83.0727 32.9819 81.6327 33.0566 80.1607 33.0566C78.6887 33.0566 77.2487 32.9819 75.8407 32.8326C74.4327 32.7046 73.1741 32.4379 72.0647 32.0326C70.9767 31.6486 70.1021 31.0939 69.4407 30.3686C68.7794 29.6646 68.4487 28.7259 68.4487 27.5526C68.4487 26.4006 68.7794 25.4619 69.4407 24.7366C70.1021 24.0113 70.9767 23.4566 72.0647 23.0726C73.1741 22.6673 74.4327 22.4006 75.8407 22.2726C77.2487 22.1233 78.6887 22.0486 80.1607 22.0486C81.6327 22.0486 83.0727 22.1233 84.4807 22.2726C85.8887 22.4006 87.1367 22.6673 88.2247 23.0726C89.3341 23.4566 90.2194 24.0113 90.8807 24.7366C91.5421 25.4619 91.8727 26.4006 91.8727 27.5526ZM86.4967 27.5846C86.4967 27.1579 85.9847 26.8913 84.9607 26.7846C83.9367 26.6566 82.3261 26.5926 80.1287 26.5926C77.9314 26.5926 76.3314 26.6566 75.3287 26.7846C74.3261 26.9126 73.8247 27.1793 73.8247 27.5846C73.8247 27.9473 74.3261 28.2033 75.3287 28.3526C76.3314 28.4806 77.9314 28.5446 80.1287 28.5446C82.3261 28.5446 83.9367 28.4806 84.9607 28.3526C85.9847 28.2246 86.4967 27.9686 86.4967 27.5846ZM118.573 21.8886C118.403 22.5286 118.019 23.0193 117.421 23.3606C116.824 23.7019 116.195 23.7979 115.533 23.6486C114.829 23.4779 114.264 23.1473 113.837 22.6566C113.432 22.1659 113.283 21.5899 113.389 20.9286C113.475 20.3099 113.549 19.6059 113.613 18.8166C113.699 18.0273 113.763 17.2166 113.805 16.3846C113.848 15.5313 113.88 14.6993 113.901 13.8886C113.923 13.0566 113.923 12.2993 113.901 11.6166C113.901 11.4459 113.848 11.2539 113.741 11.0406C113.656 10.8273 113.368 10.7206 112.877 10.7206H100.173C99.8532 10.7206 99.5652 10.6459 99.3092 10.4966C99.0746 10.3259 98.8719 10.1233 98.7012 9.88861C98.5306 9.63261 98.3919 9.35528 98.2852 9.05661C98.1999 8.75795 98.1572 8.46995 98.1572 8.19261C98.1572 7.87261 98.2212 7.56328 98.3492 7.26461C98.4772 6.96595 98.6372 6.69928 98.8292 6.46461C99.0212 6.22994 99.2346 6.03795 99.4692 5.88861C99.7252 5.73928 99.9599 5.66461 100.173 5.66461H116.301C116.515 5.66461 116.76 5.70728 117.037 5.79261C117.336 5.87795 117.613 6.01661 117.869 6.20861C118.147 6.40061 118.381 6.63528 118.573 6.91261C118.787 7.18995 118.925 7.52061 118.989 7.90461C119.096 8.62995 119.16 9.63261 119.181 10.9126C119.224 12.1926 119.224 13.5366 119.181 14.9446C119.16 16.3313 119.096 17.6646 118.989 18.9446C118.883 20.2033 118.744 21.1846 118.573 21.8886ZM97.6772 29.8566C97.3786 29.8139 97.0799 29.7179 96.7812 29.5686C96.5039 29.4406 96.2479 29.2593 96.0132 29.0246C95.7999 28.7899 95.6292 28.5019 95.5012 28.1606C95.3946 27.8193 95.3626 27.4246 95.4052 26.9766C95.4479 26.5286 95.5652 26.1553 95.7572 25.8566C95.9492 25.5579 96.1839 25.3233 96.4612 25.1526C96.7386 24.9606 97.0372 24.8433 97.3572 24.8006C97.6986 24.7366 98.0079 24.7259 98.2852 24.7686C99.1172 24.8539 100.099 24.9286 101.229 24.9926C102.381 25.0353 103.608 25.0779 104.909 25.1206C106.232 25.1419 107.587 25.1633 108.973 25.1846C110.36 25.1846 111.704 25.1739 113.005 25.1526C114.328 25.1099 115.555 25.0673 116.685 25.0246C117.837 24.9606 118.819 24.8753 119.629 24.7686C119.949 24.7259 120.269 24.7366 120.589 24.8006C120.931 24.8646 121.24 24.9819 121.517 25.1526C121.795 25.3233 122.029 25.5686 122.221 25.8886C122.413 26.2086 122.52 26.6033 122.541 27.0726C122.584 27.5206 122.541 27.9153 122.413 28.2566C122.285 28.5766 122.104 28.8433 121.869 29.0566C121.656 29.2913 121.4 29.4726 121.101 29.6006C120.824 29.7286 120.547 29.8139 120.269 29.8566C119.629 29.9419 118.733 30.0059 117.581 30.0486C116.429 30.1126 115.139 30.1553 113.709 30.1766C112.28 30.2193 110.776 30.2406 109.197 30.2406C107.619 30.2619 106.093 30.2619 104.621 30.2406C103.171 30.2193 101.827 30.1766 100.589 30.1126C99.3732 30.0486 98.4026 29.9633 97.6772 29.8566ZM125.754 25.4406C125.69 25.1633 125.636 24.7793 125.594 24.2886C125.551 23.7979 125.519 23.2646 125.498 22.6886C125.498 22.0913 125.498 21.4833 125.498 20.8646C125.519 20.2246 125.54 19.6273 125.562 19.0726C125.604 18.4966 125.647 17.9846 125.69 17.5366C125.732 17.0886 125.775 16.7579 125.818 16.5446C125.924 16.0113 126.148 15.5526 126.49 15.1686C126.831 14.7846 127.215 14.5926 127.642 14.5926H135.578C135.578 14.2086 135.578 13.7926 135.578 13.3446C135.599 12.8753 135.588 12.3206 135.546 11.6806C135.546 11.5526 135.503 11.4139 135.418 11.2646C135.354 11.0939 135.14 11.0086 134.778 11.0086H127.962C127.663 11.0086 127.396 10.9339 127.162 10.7846C126.927 10.6139 126.724 10.4113 126.554 10.1766C126.404 9.92061 126.287 9.64328 126.202 9.34461C126.138 9.04595 126.106 8.75795 126.106 8.48061C126.106 8.20328 126.148 7.92595 126.234 7.64861C126.34 7.34995 126.468 7.08328 126.618 6.84861C126.788 6.59261 126.98 6.38994 127.194 6.24061C127.428 6.06995 127.684 5.98461 127.962 5.98461H138.01C138.244 5.98461 138.49 6.03794 138.746 6.14461C139.023 6.22994 139.279 6.36861 139.514 6.56061C139.77 6.73128 139.994 6.95528 140.186 7.23261C140.378 7.50995 140.506 7.84061 140.57 8.22461C140.634 8.62995 140.676 9.23795 140.698 10.0486C140.719 10.8593 140.719 11.7126 140.698 12.6086C140.698 13.5046 140.676 14.3793 140.634 15.2326C140.591 16.0859 140.527 16.7579 140.442 17.2486C140.399 17.4833 140.314 17.7393 140.186 18.0166C140.079 18.2939 139.93 18.5499 139.738 18.7846C139.546 19.0193 139.311 19.2219 139.034 19.3926C138.778 19.5419 138.468 19.6166 138.106 19.6166H130.714C130.735 20.0219 130.735 20.5019 130.714 21.0566C130.714 21.6113 130.724 22.1873 130.746 22.7846C130.788 23.3393 131.151 23.6806 131.834 23.8086C132.239 23.8939 132.623 23.9579 132.986 24.0006C133.348 24.0219 133.796 24.0326 134.33 24.0326C135.29 24.0326 136.132 23.9579 136.858 23.8086C137.604 23.6379 138.138 23.4673 138.458 23.2966C138.714 23.1899 139.023 23.1366 139.386 23.1366C139.748 23.1153 140.111 23.1686 140.474 23.2966C140.836 23.4246 141.167 23.6273 141.466 23.9046C141.764 24.1819 141.956 24.5553 142.042 25.0246C142.106 25.3659 142.095 25.6966 142.01 26.0166C141.924 26.3366 141.796 26.6353 141.626 26.9126C141.476 27.1686 141.295 27.3926 141.082 27.5846C140.868 27.7766 140.676 27.9046 140.506 27.9686C139.695 28.3739 138.714 28.6726 137.562 28.8646C136.41 29.0566 135.29 29.1526 134.202 29.1526C132.858 29.1526 131.674 29.0353 130.65 28.8006C129.626 28.5873 128.804 28.3526 128.186 28.0966C127.759 27.8833 127.29 27.5633 126.778 27.1366C126.266 26.7099 125.924 26.1446 125.754 25.4406ZM148.954 6.17661C149.06 6.90195 149.135 7.89395 149.178 9.15261C149.242 10.4113 149.284 11.7979 149.306 13.3126C149.327 14.8273 149.327 16.3953 149.306 18.0166C149.306 19.6379 149.284 21.1846 149.242 22.6566C149.22 24.1286 149.178 25.4513 149.114 26.6246C149.071 27.7766 149.018 28.6513 148.954 29.2486C148.911 29.5686 148.794 29.8673 148.602 30.1446C148.431 30.4219 148.207 30.6673 147.93 30.8806C147.674 31.0939 147.375 31.2539 147.034 31.3606C146.714 31.4673 146.383 31.4993 146.042 31.4566C145.252 31.3713 144.634 31.0619 144.186 30.5286C143.759 29.9953 143.567 29.4086 143.61 28.7686C143.674 27.9579 143.727 26.9659 143.77 25.7926C143.834 24.6193 143.876 23.3606 143.898 22.0166C143.919 20.6513 143.93 19.2433 143.93 17.7926C143.951 16.3419 143.94 14.9339 143.898 13.5686C143.876 12.2033 143.844 10.9339 143.802 9.76061C143.759 8.56595 143.695 7.56328 143.61 6.75261C143.567 6.41128 143.599 6.09128 143.706 5.79261C143.834 5.47261 144.004 5.18461 144.218 4.92861C144.452 4.67261 144.719 4.45928 145.018 4.28861C145.316 4.11795 145.626 4.02195 145.946 4.00061C146.692 3.91528 147.354 4.08595 147.93 4.51261C148.506 4.93928 148.847 5.49395 148.954 6.17661Z" fill="#FF952B"/>
<path d="M69.4567 36.0446C70.5527 36.0446 71.4087 36.3646 72.0247 37.0046C72.6487 37.6366 72.9607 38.5526 72.9607 39.7526V40.9886C72.9607 42.1886 72.6487 43.1086 72.0247 43.7486C71.4087 44.3806 70.5527 44.6966 69.4567 44.6966H66.7567V36.0446H69.4567ZM67.5967 43.9526H69.4687C69.8527 43.9526 70.2087 43.8926 70.5367 43.7726C70.8647 43.6526 71.1447 43.4686 71.3767 43.2206C71.6087 42.9646 71.7887 42.6486 71.9167 42.2726C72.0527 41.8966 72.1207 41.4486 72.1207 40.9286V39.8126C72.1207 39.3006 72.0527 38.8566 71.9167 38.4806C71.7887 38.0966 71.6087 37.7806 71.3767 37.5326C71.1447 37.2766 70.8647 37.0886 70.5367 36.9686C70.2087 36.8486 69.8527 36.7886 69.4687 36.7886H67.5967V43.9526ZM77.1844 38.1086C78.0564 38.1086 78.7324 38.3646 79.2124 38.8766C79.6924 39.3886 79.9324 40.1126 79.9324 41.0486V41.8526C79.9324 42.7886 79.6924 43.5126 79.2124 44.0246C78.7324 44.5366 78.0564 44.7926 77.1844 44.7926C76.3124 44.7926 75.6364 44.5366 75.1564 44.0246C74.6764 43.5126 74.4364 42.7886 74.4364 41.8526V41.0486C74.4364 40.1046 74.6764 39.3806 75.1564 38.8766C75.6364 38.3646 76.3124 38.1086 77.1844 38.1086ZM77.1844 44.0726C77.7844 44.0726 78.2524 43.8886 78.5884 43.5206C78.9324 43.1446 79.1044 42.5726 79.1044 41.8046V41.0966C79.1044 40.3286 78.9324 39.7606 78.5884 39.3926C78.2524 39.0166 77.7844 38.8286 77.1844 38.8286C76.5844 38.8286 76.1124 39.0166 75.7684 39.3926C75.4324 39.7606 75.2644 40.3286 75.2644 41.0966V41.8046C75.2644 42.5726 75.4324 43.1446 75.7684 43.5206C76.1124 43.8886 76.5844 44.0726 77.1844 44.0726ZM84.3407 38.1086C85.0847 38.1086 85.6567 38.3126 86.0567 38.7206C86.4647 39.1206 86.6687 39.6606 86.6687 40.3406V44.6966H85.8527V40.5446C85.8527 40.3126 85.8287 40.0966 85.7807 39.8966C85.7327 39.6886 85.6447 39.5086 85.5167 39.3566C85.3967 39.1966 85.2287 39.0726 85.0127 38.9846C84.8047 38.8966 84.5407 38.8526 84.2207 38.8526C83.9487 38.8526 83.6967 38.9046 83.4647 39.0086C83.2407 39.1046 83.0487 39.2326 82.8887 39.3926C82.7287 39.5526 82.6007 39.7286 82.5047 39.9206C82.4167 40.1126 82.3727 40.3046 82.3727 40.4966V44.6966H81.5567V38.2286H82.3607V39.1286C82.4327 39.0086 82.5287 38.8886 82.6487 38.7686C82.7687 38.6406 82.9127 38.5286 83.0807 38.4326C83.2487 38.3366 83.4367 38.2606 83.6447 38.2046C83.8527 38.1406 84.0847 38.1086 84.3407 38.1086ZM92.7411 43.7246H92.7291C92.5451 44.0526 92.2731 44.2926 91.9131 44.4446C91.5611 44.5966 91.1971 44.6726 90.8211 44.6726C90.4451 44.6726 90.1011 44.6086 89.7891 44.4806C89.4771 44.3606 89.2051 44.1846 88.9731 43.9526C88.7411 43.7126 88.5611 43.4206 88.4331 43.0766C88.3051 42.7326 88.2411 42.3406 88.2411 41.9006V40.8806C88.2411 40.4406 88.3051 40.0486 88.4331 39.7046C88.5611 39.3606 88.7371 39.0726 88.9611 38.8406C89.1931 38.6006 89.4651 38.4206 89.7771 38.3006C90.0971 38.1726 90.4411 38.1086 90.8091 38.1086C91.2891 38.1086 91.6891 38.2006 92.0091 38.3846C92.3371 38.5686 92.5851 38.7806 92.7531 39.0206V38.2286H93.5571V44.5886C93.5571 45.5086 93.3171 46.2006 92.8371 46.6646C92.3651 47.1366 91.7251 47.3726 90.9171 47.3726C90.4611 47.3726 90.0531 47.3126 89.6931 47.1926C89.3411 47.0726 89.0291 46.9086 88.7571 46.7006L89.1291 46.0646C89.2811 46.1686 89.4251 46.2526 89.5611 46.3166C89.6971 46.3886 89.8331 46.4446 89.9691 46.4846C90.1131 46.5326 90.2611 46.5646 90.4131 46.5806C90.5651 46.5966 90.7331 46.6046 90.9171 46.6046C91.5171 46.6046 91.9691 46.4406 92.2731 46.1126C92.5851 45.7926 92.7411 45.2926 92.7411 44.6126V43.7246ZM89.0571 41.7806C89.0571 42.4766 89.2211 43.0126 89.5491 43.3886C89.8771 43.7646 90.3131 43.9526 90.8571 43.9526C91.1211 43.9526 91.3651 43.9206 91.5891 43.8566C91.8211 43.7846 92.0211 43.6806 92.1891 43.5446C92.3571 43.4006 92.4891 43.2246 92.5851 43.0166C92.6891 42.8006 92.7411 42.5486 92.7411 42.2606V40.4366C92.7411 40.2446 92.6931 40.0566 92.5971 39.8726C92.5091 39.6806 92.3811 39.5086 92.2131 39.3566C92.0451 39.1966 91.8451 39.0686 91.6131 38.9726C91.3811 38.8766 91.1291 38.8286 90.8571 38.8286C90.3051 38.8286 89.8651 39.0206 89.5371 39.4046C89.2171 39.7806 89.0571 40.3126 89.0571 41.0006V41.7806ZM99.6903 43.7246H99.6783C99.4943 44.0526 99.2223 44.2926 98.8623 44.4446C98.5103 44.5966 98.1463 44.6726 97.7703 44.6726C97.3943 44.6726 97.0503 44.6086 96.7383 44.4806C96.4263 44.3606 96.1543 44.1846 95.9223 43.9526C95.6903 43.7126 95.5103 43.4206 95.3823 43.0766C95.2543 42.7326 95.1903 42.3406 95.1903 41.9006V40.8806C95.1903 40.4406 95.2543 40.0486 95.3823 39.7046C95.5103 39.3606 95.6863 39.0726 95.9103 38.8406C96.1423 38.6006 96.4143 38.4206 96.7263 38.3006C97.0463 38.1726 97.3903 38.1086 97.7583 38.1086C98.2383 38.1086 98.6383 38.2006 98.9583 38.3846C99.2863 38.5686 99.5343 38.7806 99.7023 39.0206V38.2286H100.506V44.5886C100.506 45.5086 100.266 46.2006 99.7863 46.6646C99.3143 47.1366 98.6743 47.3726 97.8663 47.3726C97.4103 47.3726 97.0023 47.3126 96.6423 47.1926C96.2903 47.0726 95.9783 46.9086 95.7063 46.7006L96.0783 46.0646C96.2303 46.1686 96.3743 46.2526 96.5103 46.3166C96.6463 46.3886 96.7823 46.4446 96.9183 46.4846C97.0623 46.5326 97.2103 46.5646 97.3623 46.5806C97.5143 46.5966 97.6823 46.6046 97.8663 46.6046C98.4663 46.6046 98.9183 46.4406 99.2223 46.1126C99.5343 45.7926 99.6903 45.2926 99.6903 44.6126V43.7246ZM96.0063 41.7806C96.0063 42.4766 96.1703 43.0126 96.4983 43.3886C96.8263 43.7646 97.2623 43.9526 97.8063 43.9526C98.0703 43.9526 98.3143 43.9206 98.5383 43.8566C98.7703 43.7846 98.9703 43.6806 99.1383 43.5446C99.3063 43.4006 99.4383 43.2246 99.5343 43.0166C99.6383 42.8006 99.6903 42.5486 99.6903 42.2606V40.4366C99.6903 40.2446 99.6423 40.0566 99.5463 39.8726C99.4583 39.6806 99.3303 39.5086 99.1623 39.3566C98.9943 39.1966 98.7943 39.0686 98.5623 38.9726C98.3303 38.8766 98.0783 38.8286 97.8063 38.8286C97.2543 38.8286 96.8143 39.0206 96.4863 39.4046C96.1663 39.7806 96.0063 40.3126 96.0063 41.0006V41.7806ZM104.647 44.7926C103.911 44.7926 103.351 44.5886 102.967 44.1806C102.583 43.7726 102.391 43.2326 102.391 42.5606V38.2286H103.207V42.3566C103.207 42.5886 103.227 42.8086 103.267 43.0166C103.315 43.2166 103.395 43.3966 103.507 43.5566C103.619 43.7086 103.775 43.8286 103.975 43.9166C104.183 44.0046 104.447 44.0486 104.767 44.0486C105.039 44.0486 105.287 44.0006 105.511 43.9046C105.743 43.8086 105.939 43.6846 106.099 43.5326C106.267 43.3726 106.395 43.1966 106.483 43.0046C106.579 42.8126 106.627 42.6206 106.627 42.4286V38.2286H107.443V44.6966H106.639V43.7966C106.487 44.0446 106.243 44.2726 105.907 44.4806C105.579 44.6886 105.159 44.7926 104.647 44.7926ZM111.813 40.7126L114.633 44.6966H113.637L111.237 41.2526L110.193 42.2606V44.6966H109.377V35.6246H110.193V41.2886L113.313 38.2286H114.405L111.813 40.7126ZM121.593 36.0446C122.689 36.0446 123.545 36.3646 124.161 37.0046C124.785 37.6366 125.097 38.5526 125.097 39.7526V40.9886C125.097 42.1886 124.785 43.1086 124.161 43.7486C123.545 44.3806 122.689 44.6966 121.593 44.6966H118.893V36.0446H121.593ZM119.733 43.9526H121.605C121.989 43.9526 122.345 43.8926 122.673 43.7726C123.001 43.6526 123.281 43.4686 123.513 43.2206C123.745 42.9646 123.925 42.6486 124.053 42.2726C124.189 41.8966 124.257 41.4486 124.257 40.9286V39.8126C124.257 39.3006 124.189 38.8566 124.053 38.4806C123.925 38.0966 123.745 37.7806 123.513 37.5326C123.281 37.2766 123.001 37.0886 122.673 36.9686C122.345 36.8486 121.989 36.7886 121.605 36.7886H119.733V43.9526ZM130.989 41.0366V40.9286C130.989 40.2486 130.833 39.7286 130.521 39.3686C130.209 39.0086 129.769 38.8286 129.201 38.8286C128.625 38.8286 128.177 39.0206 127.857 39.4046C127.545 39.7806 127.389 40.2886 127.389 40.9286V41.0366H130.989ZM131.661 44.0606C131.405 44.2446 131.085 44.4126 130.701 44.5646C130.317 44.7166 129.853 44.7926 129.309 44.7926C128.445 44.7926 127.773 44.5366 127.293 44.0246C126.813 43.5046 126.573 42.7726 126.573 41.8286V41.0246C126.573 40.1046 126.805 39.3886 127.269 38.8766C127.741 38.3646 128.385 38.1086 129.201 38.1086C130.049 38.1086 130.693 38.3726 131.133 38.9006C131.581 39.4206 131.805 40.1366 131.805 41.0486V41.7206H127.389V41.8286C127.389 42.5486 127.561 43.1046 127.905 43.4966C128.249 43.8806 128.721 44.0726 129.321 44.0726C129.753 44.0726 130.133 44.0086 130.461 43.8806C130.789 43.7526 131.069 43.6046 131.301 43.4366L131.661 44.0606ZM137.554 43.7246H137.542C137.358 44.0526 137.086 44.2926 136.726 44.4446C136.374 44.5966 136.01 44.6726 135.634 44.6726C135.258 44.6726 134.914 44.6086 134.602 44.4806C134.29 44.3606 134.018 44.1846 133.786 43.9526C133.554 43.7126 133.374 43.4206 133.246 43.0766C133.118 42.7326 133.054 42.3406 133.054 41.9006V40.8806C133.054 40.4406 133.118 40.0486 133.246 39.7046C133.374 39.3606 133.55 39.0726 133.774 38.8406C134.006 38.6006 134.278 38.4206 134.59 38.3006C134.91 38.1726 135.254 38.1086 135.622 38.1086C136.102 38.1086 136.502 38.2006 136.822 38.3846C137.15 38.5686 137.398 38.7806 137.566 39.0206V38.2286H138.37V44.5886C138.37 45.5086 138.13 46.2006 137.65 46.6646C137.178 47.1366 136.538 47.3726 135.73 47.3726C135.274 47.3726 134.866 47.3126 134.506 47.1926C134.154 47.0726 133.842 46.9086 133.57 46.7006L133.942 46.0646C134.094 46.1686 134.238 46.2526 134.374 46.3166C134.51 46.3886 134.646 46.4446 134.782 46.4846C134.926 46.5326 135.074 46.5646 135.226 46.5806C135.378 46.5966 135.546 46.6046 135.73 46.6046C136.33 46.6046 136.782 46.4406 137.086 46.1126C137.398 45.7926 137.554 45.2926 137.554 44.6126V43.7246ZM133.87 41.7806C133.87 42.4766 134.034 43.0126 134.362 43.3886C134.69 43.7646 135.126 43.9526 135.67 43.9526C135.934 43.9526 136.178 43.9206 136.402 43.8566C136.634 43.7846 136.834 43.6806 137.002 43.5446C137.17 43.4006 137.302 43.2246 137.398 43.0166C137.502 42.8006 137.554 42.5486 137.554 42.2606V40.4366C137.554 40.2446 137.506 40.0566 137.41 39.8726C137.322 39.6806 137.194 39.5086 137.026 39.3566C136.858 39.1966 136.658 39.0686 136.426 38.9726C136.194 38.8766 135.942 38.8286 135.67 38.8286C135.118 38.8286 134.678 39.0206 134.35 39.4046C134.03 39.7806 133.87 40.3126 133.87 41.0006V41.7806ZM143.639 39.0686C143.415 38.9806 143.155 38.9366 142.859 38.9366C142.595 38.9366 142.355 38.9886 142.139 39.0926C141.923 39.1966 141.739 39.3406 141.587 39.5246C141.435 39.7086 141.319 39.9286 141.239 40.1846C141.159 40.4406 141.119 40.7206 141.119 41.0246V44.6966H140.303V38.2286H141.107V39.3686C141.179 39.2166 141.267 39.0646 141.371 38.9126C141.483 38.7606 141.615 38.6246 141.767 38.5046C141.927 38.3846 142.103 38.2886 142.295 38.2166C142.495 38.1446 142.719 38.1086 142.967 38.1086C143.151 38.1086 143.315 38.1206 143.459 38.1446C143.611 38.1606 143.755 38.1926 143.891 38.2406L143.639 39.0686ZM149.059 41.0366V40.9286C149.059 40.2486 148.903 39.7286 148.591 39.3686C148.279 39.0086 147.839 38.8286 147.271 38.8286C146.695 38.8286 146.247 39.0206 145.927 39.4046C145.615 39.7806 145.459 40.2886 145.459 40.9286V41.0366H149.059ZM149.731 44.0606C149.475 44.2446 149.155 44.4126 148.771 44.5646C148.387 44.7166 147.923 44.7926 147.379 44.7926C146.515 44.7926 145.843 44.5366 145.363 44.0246C144.883 43.5046 144.643 42.7726 144.643 41.8286V41.0246C144.643 40.1046 144.875 39.3886 145.339 38.8766C145.811 38.3646 146.455 38.1086 147.271 38.1086C148.119 38.1086 148.763 38.3726 149.203 38.9006C149.651 39.4206 149.875 40.1366 149.875 41.0486V41.7206H145.459V41.8286C145.459 42.5486 145.631 43.1046 145.975 43.4966C146.319 43.8806 146.791 44.0726 147.391 44.0726C147.823 44.0726 148.203 44.0086 148.531 43.8806C148.859 43.7526 149.139 43.6046 149.371 43.4366L149.731 44.0606ZM155.54 41.0366V40.9286C155.54 40.2486 155.384 39.7286 155.072 39.3686C154.76 39.0086 154.32 38.8286 153.752 38.8286C153.176 38.8286 152.728 39.0206 152.408 39.4046C152.096 39.7806 151.94 40.2886 151.94 40.9286V41.0366H155.54ZM156.212 44.0606C155.956 44.2446 155.636 44.4126 155.252 44.5646C154.868 44.7166 154.404 44.7926 153.86 44.7926C152.996 44.7926 152.324 44.5366 151.844 44.0246C151.364 43.5046 151.124 42.7726 151.124 41.8286V41.0246C151.124 40.1046 151.356 39.3886 151.82 38.8766C152.292 38.3646 152.936 38.1086 153.752 38.1086C154.6 38.1086 155.244 38.3726 155.684 38.9006C156.132 39.4206 156.356 40.1366 156.356 41.0486V41.7206H151.94V41.8286C151.94 42.5486 152.112 43.1046 152.456 43.4966C152.8 43.8806 153.272 44.0726 153.872 44.0726C154.304 44.0726 154.684 44.0086 155.012 43.8806C155.34 43.7526 155.62 43.6046 155.852 43.4366L156.212 44.0606ZM167.635 44.6966H166.735L165.775 42.0086H162.115L161.131 44.6966H160.267L163.483 36.0446H164.431L167.635 44.6966ZM162.379 41.2766H165.511L164.671 38.9366C164.615 38.7926 164.563 38.6526 164.515 38.5166C164.467 38.3806 164.415 38.2326 164.359 38.0726C164.303 37.9046 164.243 37.7206 164.179 37.5206C164.115 37.3126 164.039 37.0686 163.951 36.7886C163.871 37.0686 163.799 37.3126 163.735 37.5206C163.671 37.7206 163.611 37.9046 163.555 38.0726C163.499 38.2326 163.447 38.3806 163.399 38.5166C163.351 38.6526 163.299 38.7926 163.243 38.9366L162.379 41.2766ZM171.069 44.7926C170.333 44.7926 169.773 44.5886 169.389 44.1806C169.005 43.7726 168.813 43.2326 168.813 42.5606V38.2286H169.629V42.3566C169.629 42.5886 169.649 42.8086 169.689 43.0166C169.737 43.2166 169.817 43.3966 169.929 43.5566C170.041 43.7086 170.197 43.8286 170.397 43.9166C170.605 44.0046 170.869 44.0486 171.189 44.0486C171.461 44.0486 171.709 44.0006 171.933 43.9046C172.165 43.8086 172.361 43.6846 172.521 43.5326C172.689 43.3726 172.817 43.1966 172.905 43.0046C173.001 42.8126 173.049 42.6206 173.049 42.4286V38.2286H173.865V44.6966H173.061V43.7966C172.909 44.0446 172.665 44.2726 172.329 44.4806C172.001 44.6886 171.581 44.7926 171.069 44.7926ZM180.023 43.8446H180.011C179.827 44.1726 179.555 44.4126 179.195 44.5646C178.835 44.7166 178.467 44.7926 178.091 44.7926C177.715 44.7926 177.371 44.7286 177.059 44.6006C176.747 44.4806 176.475 44.3046 176.243 44.0726C176.011 43.8326 175.831 43.5406 175.703 43.1966C175.575 42.8526 175.511 42.4606 175.511 42.0206V40.8806C175.511 40.4406 175.575 40.0486 175.703 39.7046C175.831 39.3606 176.007 39.0726 176.231 38.8406C176.463 38.6006 176.735 38.4206 177.047 38.3006C177.367 38.1726 177.711 38.1086 178.079 38.1086C178.559 38.1086 178.959 38.2006 179.279 38.3846C179.599 38.5686 179.843 38.7806 180.011 39.0206V35.6246H180.827V44.6966H180.023V43.8446ZM176.327 41.9006C176.327 42.5966 176.491 43.1326 176.819 43.5086C177.147 43.8846 177.583 44.0726 178.127 44.0726C178.391 44.0726 178.635 44.0406 178.859 43.9766C179.091 43.9046 179.291 43.8006 179.459 43.6646C179.627 43.5206 179.759 43.3446 179.855 43.1366C179.959 42.9206 180.011 42.6686 180.011 42.3806V40.4366C180.011 40.2446 179.963 40.0566 179.867 39.8726C179.779 39.6806 179.651 39.5086 179.483 39.3566C179.315 39.1966 179.115 39.0686 178.883 38.9726C178.651 38.8766 178.399 38.8286 178.127 38.8286C177.575 38.8286 177.135 39.0206 176.807 39.4046C176.487 39.7806 176.327 40.3126 176.327 41.0006V41.9006ZM182.784 38.2286H183.6V44.6966H182.784V38.2286ZM182.748 36.0806H183.636V36.9926H182.748V36.0806ZM186.065 38.9246H184.961V38.2286H186.065V36.5606H186.881V38.2286H188.669V38.9246H186.881V42.8606C186.881 43.3006 186.949 43.6086 187.085 43.7846C187.229 43.9606 187.465 44.0486 187.793 44.0486C188.113 44.0486 188.417 44.0086 188.705 43.9286L188.825 44.6006C188.697 44.6486 188.525 44.6846 188.309 44.7086C188.101 44.7406 187.909 44.7566 187.733 44.7566C187.453 44.7566 187.205 44.7246 186.989 44.6606C186.781 44.5966 186.609 44.4926 186.473 44.3486C186.337 44.2046 186.233 44.0166 186.161 43.7846C186.097 43.5446 186.065 43.2486 186.065 42.8966V38.9246ZM195.877 44.0486C196.213 44.0486 196.513 44.0086 196.777 43.9286C197.049 43.8486 197.277 43.7406 197.461 43.6046C197.653 43.4606 197.797 43.3006 197.893 43.1246C197.989 42.9406 198.037 42.7526 198.037 42.5606V42.3086C198.037 42.1086 198.005 41.9286 197.941 41.7686C197.877 41.6086 197.761 41.4646 197.593 41.3366C197.425 41.2006 197.193 41.0806 196.897 40.9766C196.609 40.8646 196.233 40.7566 195.769 40.6526C195.265 40.5406 194.841 40.4126 194.497 40.2686C194.161 40.1166 193.889 39.9486 193.681 39.7646C193.481 39.5726 193.337 39.3646 193.249 39.1406C193.169 38.9086 193.129 38.6566 193.129 38.3846V38.1086C193.129 37.7806 193.197 37.4846 193.333 37.2206C193.477 36.9486 193.673 36.7166 193.921 36.5246C194.177 36.3326 194.477 36.1846 194.821 36.0806C195.173 35.9686 195.553 35.9126 195.961 35.9126C196.545 35.9126 197.045 35.9846 197.461 36.1286C197.877 36.2646 198.233 36.4366 198.529 36.6446L198.133 37.3286C197.853 37.1286 197.533 36.9726 197.173 36.8606C196.813 36.7406 196.409 36.6806 195.961 36.6806C195.697 36.6806 195.445 36.7126 195.205 36.7766C194.965 36.8406 194.753 36.9366 194.569 37.0646C194.393 37.1846 194.249 37.3326 194.137 37.5086C194.033 37.6846 193.981 37.8846 193.981 38.1086V38.3486C193.981 38.5326 194.013 38.7006 194.077 38.8526C194.149 39.0046 194.261 39.1406 194.413 39.2606C194.573 39.3806 194.785 39.4926 195.049 39.5966C195.313 39.7006 195.641 39.7966 196.033 39.8846C196.593 40.0126 197.057 40.1526 197.425 40.3046C197.793 40.4486 198.085 40.6166 198.301 40.8086C198.517 41.0006 198.669 41.2166 198.757 41.4566C198.845 41.6966 198.889 41.9726 198.889 42.2846V42.5606C198.889 42.8726 198.821 43.1646 198.685 43.4366C198.549 43.7086 198.353 43.9486 198.097 44.1566C197.849 44.3646 197.537 44.5286 197.161 44.6486C196.793 44.7686 196.377 44.8286 195.913 44.8286C195.337 44.8286 194.797 44.7406 194.293 44.5646C193.797 44.3966 193.357 44.1646 192.973 43.8686L193.405 43.1606C193.837 43.4726 194.257 43.7006 194.665 43.8446C195.081 43.9806 195.485 44.0486 195.877 44.0486ZM200.574 38.2286L202.578 43.7846L204.546 38.2286H205.386L202.026 47.3726L201.33 47.1206L202.158 44.8046L199.734 38.2286H200.574ZM208.601 44.0606C209.129 44.0606 209.529 43.9566 209.801 43.7486C210.073 43.5406 210.209 43.2966 210.209 43.0166V42.8966C210.209 42.5686 210.073 42.3206 209.801 42.1526C209.537 41.9846 209.093 41.8406 208.469 41.7206C208.141 41.6566 207.845 41.5806 207.581 41.4926C207.317 41.4046 207.093 41.2926 206.909 41.1566C206.725 41.0206 206.581 40.8606 206.477 40.6766C206.373 40.4846 206.321 40.2566 206.321 39.9926V39.8246C206.321 39.5926 206.369 39.3726 206.465 39.1646C206.561 38.9566 206.705 38.7766 206.897 38.6246C207.089 38.4646 207.329 38.3406 207.617 38.2526C207.913 38.1566 208.261 38.1086 208.661 38.1086C209.157 38.1086 209.585 38.1726 209.945 38.3006C210.305 38.4206 210.617 38.5806 210.881 38.7806L210.509 39.3926C210.237 39.2086 209.961 39.0686 209.681 38.9726C209.401 38.8766 209.053 38.8286 208.637 38.8286C208.149 38.8286 207.777 38.9286 207.521 39.1286C207.265 39.3206 207.137 39.5566 207.137 39.8366V39.9686C207.137 40.2486 207.277 40.4686 207.557 40.6286C207.845 40.7886 208.245 40.9166 208.757 41.0126C209.557 41.1646 210.133 41.3806 210.485 41.6606C210.845 41.9406 211.025 42.3406 211.025 42.8606V43.0406C211.025 43.2966 210.965 43.5326 210.845 43.7486C210.725 43.9646 210.557 44.1526 210.341 44.3126C210.133 44.4646 209.885 44.5806 209.597 44.6606C209.309 44.7486 208.993 44.7926 208.649 44.7926C208.121 44.7926 207.649 44.7206 207.233 44.5766C206.825 44.4406 206.469 44.2606 206.165 44.0366L206.561 43.3886C206.857 43.5886 207.173 43.7526 207.509 43.8806C207.853 44.0006 208.217 44.0606 208.601 44.0606ZM212.994 38.9246H211.89V38.2286H212.994V36.5606H213.81V38.2286H215.598V38.9246H213.81V42.8606C213.81 43.3006 213.878 43.6086 214.014 43.7846C214.158 43.9606 214.394 44.0486 214.722 44.0486C215.042 44.0486 215.346 44.0086 215.634 43.9286L215.754 44.6006C215.626 44.6486 215.454 44.6846 215.238 44.7086C215.03 44.7406 214.838 44.7566 214.662 44.7566C214.382 44.7566 214.134 44.7246 213.918 44.6606C213.71 44.5966 213.538 44.4926 213.402 44.3486C213.266 44.2046 213.162 44.0166 213.09 43.7846C213.026 43.5446 212.994 43.2486 212.994 42.8966V38.9246ZM221.259 41.0366V40.9286C221.259 40.2486 221.103 39.7286 220.791 39.3686C220.479 39.0086 220.039 38.8286 219.471 38.8286C218.895 38.8286 218.447 39.0206 218.127 39.4046C217.815 39.7806 217.659 40.2886 217.659 40.9286V41.0366H221.259ZM221.931 44.0606C221.675 44.2446 221.355 44.4126 220.971 44.5646C220.587 44.7166 220.123 44.7926 219.579 44.7926C218.715 44.7926 218.043 44.5366 217.563 44.0246C217.083 43.5046 216.843 42.7726 216.843 41.8286V41.0246C216.843 40.1046 217.075 39.3886 217.539 38.8766C218.011 38.3646 218.655 38.1086 219.471 38.1086C220.319 38.1086 220.963 38.3726 221.403 38.9006C221.851 39.4206 222.075 40.1366 222.075 41.0486V41.7206H217.659V41.8286C217.659 42.5486 217.831 43.1046 218.175 43.4966C218.519 43.8806 218.991 44.0726 219.591 44.0726C220.023 44.0726 220.403 44.0086 220.731 43.8806C221.059 43.7526 221.339 43.6046 221.571 43.4366L221.931 44.0606ZM230.222 38.1086C230.958 38.1086 231.494 38.3086 231.83 38.7086C232.174 39.1086 232.346 39.6526 232.346 40.3406V44.6966H231.53V40.5566C231.53 40.2926 231.506 40.0566 231.458 39.8486C231.418 39.6406 231.342 39.4646 231.23 39.3206C231.126 39.1686 230.978 39.0526 230.786 38.9726C230.602 38.8926 230.366 38.8526 230.078 38.8526C229.814 38.8526 229.582 38.9006 229.382 38.9966C229.182 39.0926 229.01 39.2166 228.866 39.3686C228.73 39.5206 228.622 39.6926 228.542 39.8846C228.47 40.0766 228.43 40.2646 228.422 40.4486V44.6966H227.606V40.5566C227.606 40.2926 227.582 40.0566 227.534 39.8486C227.494 39.6406 227.418 39.4646 227.306 39.3206C227.202 39.1686 227.054 39.0526 226.862 38.9726C226.678 38.8926 226.442 38.8526 226.154 38.8526C225.89 38.8526 225.654 38.9046 225.446 39.0086C225.238 39.1046 225.062 39.2326 224.918 39.3926C224.782 39.5526 224.678 39.7286 224.606 39.9206C224.534 40.1126 224.498 40.3046 224.498 40.4966V44.6966H223.682V38.2286H224.486V39.1286C224.558 39.0006 224.646 38.8766 224.75 38.7566C224.862 38.6286 224.994 38.5166 225.146 38.4206C225.298 38.3246 225.466 38.2486 225.65 38.1926C225.842 38.1366 226.058 38.1086 226.298 38.1086C226.818 38.1086 227.238 38.2126 227.558 38.4206C227.878 38.6206 228.11 38.9086 228.254 39.2846C228.326 39.1486 228.418 39.0126 228.53 38.8766C228.65 38.7326 228.79 38.6046 228.95 38.4926C229.118 38.3806 229.306 38.2886 229.514 38.2166C229.73 38.1446 229.966 38.1086 230.222 38.1086Z" fill="#FF952B"/>
</svg>
