<svg width="128" height="128" viewBox="0 0 128 128" fill="none" xmlns="http://www.w3.org/2000/svg">
<rect width="128" height="128" rx="64" fill="#F2F4F8"/>
<path d="M57.068 64.14C57.3139 64.0351 57.5783 63.9805 57.8457 63.9796C58.113 63.9786 58.3778 64.0312 58.6245 64.1344C58.8711 64.2375 59.0946 64.389 59.2816 64.58C59.4687 64.771 59.6156 64.9975 59.7136 65.2463C59.8116 65.495 59.8588 65.7608 59.8523 66.0281C59.8458 66.2954 59.7858 66.5586 59.6758 66.8023C59.5659 67.0459 59.4082 67.2651 59.212 67.4468C59.0159 67.6284 58.7854 67.769 58.534 67.86C57.1971 68.3868 56.0497 69.3037 55.241 70.4915C54.4324 71.6793 53.9999 73.083 54 74.52V78C54 78.5304 54.2107 79.0391 54.5858 79.4142C54.9609 79.7893 55.4696 80 56 80H72C72.5304 80 73.0391 79.7893 73.4142 79.4142C73.7893 79.0391 74 78.5304 74 78V74.706C74.0002 73.2229 73.5497 71.7748 72.7082 70.5537C71.8667 69.3325 70.6739 68.3959 69.288 67.868C69.0351 67.7802 68.8024 67.6426 68.6036 67.4632C68.4049 67.2838 68.2442 67.0664 68.1311 66.8237C68.0179 66.5811 67.9546 66.3182 67.945 66.0507C67.9353 65.7831 67.9795 65.5164 68.0748 65.2662C68.1702 65.0161 68.3148 64.7876 68.5001 64.5943C68.6854 64.4011 68.9076 64.247 69.1535 64.1413C69.3994 64.0355 69.6641 63.9802 69.9318 63.9786C70.1995 63.977 70.4648 64.0292 70.712 64.132C72.8552 64.9484 74.6998 66.3967 76.0013 68.285C77.3028 70.1733 77.9998 72.4126 78 74.706V78C78 79.5913 77.3679 81.1174 76.2426 82.2426C75.1174 83.3679 73.5913 84 72 84H56C54.4087 84 52.8826 83.3679 51.7574 82.2426C50.6321 81.1174 50 79.5913 50 78V74.52C50.0003 72.2803 50.6746 70.0925 51.9351 68.2413C53.1957 66.39 54.9842 64.961 57.068 64.14ZM64 44C66.1217 44 68.1566 44.8429 69.6569 46.3431C71.1571 47.8434 72 49.8783 72 52V56C72 58.1217 71.1571 60.1566 69.6569 61.6569C68.1566 63.1571 66.1217 64 64 64C61.8783 64 59.8434 63.1571 58.3431 61.6569C56.8429 60.1566 56 58.1217 56 56V52C56 49.8783 56.8429 47.8434 58.3431 46.3431C59.8434 44.8429 61.8783 44 64 44V44ZM64 48C62.9391 48 61.9217 48.4214 61.1716 49.1716C60.4214 49.9217 60 50.9391 60 52V56C60 57.0609 60.4214 58.0783 61.1716 58.8284C61.9217 59.5786 62.9391 60 64 60C65.0609 60 66.0783 59.5786 66.8284 58.8284C67.5786 58.0783 68 57.0609 68 56V52C68 50.9391 67.5786 49.9217 66.8284 49.1716C66.0783 48.4214 65.0609 48 64 48Z" fill="#C1C7CD"/>
</svg>
